<?xml version="1.0" standalone="no"?>
<!DOCTYPE svg PUBLIC "-//W3C//DTD SVG 20010904//EN"
 "http://www.w3.org/TR/2001/REC-SVG-20010904/DTD/svg10.dtd">
<svg version="1.0" xmlns="http://www.w3.org/2000/svg"
 width="512.000000pt" height="512.000000pt" viewBox="0 0 512.000000 512.000000"
 preserveAspectRatio="xMidYMid meet">

<g transform="translate(0.000000,512.000000) scale(0.100000,-0.100000)"
fill="#000000" stroke="none">
<path d="M482 5105 c-223 -49 -420 -247 -467 -471 -12 -56 -15 -181 -15 -661
l0 -593 260 0 259 0 3 580 3 580 28 27 27 28 575 3 575 3 0 259 0 260 -592 -1
c-463 0 -607 -4 -656 -14z"/>
<path d="M3390 4860 l0 -259 575 -3 575 -3 27 -28 28 -27 3 -580 3 -580 259 0
260 0 0 593 c0 661 -1 672 -67 806 -52 106 -168 222 -274 274 -134 66 -146 67
-801 67 l-588 0 0 -260z"/>
<path d="M2440 4294 c-104 -22 -203 -78 -290 -164 -123 -121 -191 -245 -241
-436 -33 -126 -34 -367 -1 -497 92 -371 353 -619 647 -616 342 2 626 331 664
766 35 401 -143 768 -441 908 -113 53 -218 65 -338 39z"/>
<path d="M2143 2326 c-402 -75 -720 -372 -825 -770 -30 -115 -37 -305 -13
-377 46 -140 140 -238 280 -291 l60 -23 850 -3 c498 -2 882 1 929 7 107 13
207 62 274 136 103 112 136 235 113 416 -53 431 -351 774 -770 887 -94 25
-103 26 -461 28 -272 2 -383 0 -437 -10z"/>
<path d="M0 1143 c0 -656 1 -668 67 -802 52 -106 168 -222 274 -274 134 -66
146 -67 802 -67 l587 0 0 260 0 259 -575 3 -575 3 -27 28 -28 27 -3 575 -3
575 -259 0 -260 0 0 -587z"/>
<path d="M4598 1155 l-3 -575 -28 -27 -27 -28 -575 -3 -575 -3 0 -259 0 -260
588 0 c655 0 667 1 801 67 106 52 222 168 274 274 66 134 67 146 67 802 l0
587 -260 0 -259 0 -3 -575z"/>
</g>
</svg>
