<?xml version="1.0" standalone="no"?>
<!DOCTYPE svg PUBLIC "-//W3C//DTD SVG 20010904//EN"
 "http://www.w3.org/TR/2001/REC-SVG-20010904/DTD/svg10.dtd">
<svg version="1.0" xmlns="http://www.w3.org/2000/svg"
 width="480.000000pt" height="360.000000pt" viewBox="0 0 480.000000 360.000000"
 preserveAspectRatio="xMidYMid meet">

<g transform="translate(0.000000,360.000000) scale(0.100000,-0.100000)"
fill="#000000" stroke="none">
<path d="M2255 3099 c-233 -26 -518 -143 -690 -283 -215 -177 -372 -433 -447
-731 -20 -79 -23 -115 -23 -290 0 -181 3 -210 27 -310 45 -191 114 -337 237
-502 180 -244 446 -417 734 -478 76 -17 92 -18 62 -5 -16 7 -14 9 15 9 54 1
25 18 -81 47 -52 14 -101 30 -109 36 -17 10 -14 10 109 -23 40 -11 75 -18 78
-16 2 3 -26 13 -62 22 -62 17 -101 38 -53 29 13 -3 -11 8 -53 24 -138 51 -278
145 -414 277 -44 42 -71 71 -61 64 17 -12 19 -12 11 1 -4 8 -22 33 -40 55
-206 260 -307 585 -275 881 16 149 51 279 110 401 329 690 1189 898 1804 437
213 -161 365 -390 436 -659 28 -104 33 -142 37 -288 6 -168 15 -222 15 -85 0
72 0 72 10 28 20 -89 -25 -301 -98 -461 -21 -45 -41 -76 -47 -72 -6 3 -7 1 -3
-5 10 -16 -12 -54 -26 -46 -7 4 -8 3 -4 -4 9 -15 -18 -55 -29 -44 -5 4 -5 2
-1 -5 8 -15 -92 -140 -175 -218 -75 -71 -165 -140 -232 -180 -26 -15 -46 -29
-43 -32 12 -12 200 109 264 170 17 17 32 26 32 20 0 -7 -5 -15 -10 -18 -6 -4
-8 -11 -4 -16 3 -5 2 -8 -3 -7 -13 4 -63 -34 -57 -43 3 -5 2 -8 -3 -7 -16 5
-143 -84 -136 -95 4 -6 0 -8 -9 -5 -8 4 -21 2 -29 -3 -12 -7 -12 -9 1 -9 8 -1
-10 -14 -40 -30 -30 -16 -51 -29 -47 -30 39 -2 372 225 364 248 -1 4 1 7 5 7
10 0 78 67 78 78 0 4 -6 5 -12 1 -7 -4 -4 2 6 14 23 26 34 29 15 5 -11 -15
-10 -14 9 1 22 19 31 43 12 31 -16 -10 -11 1 7 16 14 12 16 12 8 0 -5 -9 -4
-12 3 -7 17 10 97 135 135 211 48 96 91 223 110 325 45 239 49 271 42 353 -48
586 -435 1051 -985 1185 -156 38 -320 49 -475 31z m1070 -379 c33 -33 57 -60
54 -60 -2 0 -31 27 -64 60 -33 33 -57 60 -54 60 2 0 31 -27 64 -60z m85 -95
c13 -14 21 -25 18 -25 -2 0 -15 11 -28 25 -13 14 -21 25 -18 25 2 0 15 -11 28
-25z m41 -52 c13 -16 12 -17 -3 -4 -17 13 -22 21 -14 21 2 0 10 -8 17 -17z m8
-158 c70 -118 144 -311 140 -366 0 -8 -9 15 -19 51 -37 137 -84 242 -159 355
-60 91 -68 107 -36 70 14 -16 48 -66 74 -110z m148 -417 c-3 -7 -5 -2 -5 12 0
14 2 19 5 13 2 -7 2 -19 0 -25z m-63 -810 c-29 -57 -101 -168 -110 -168 -2 0
13 26 34 58 22 31 51 81 66 110 14 28 29 52 31 52 3 0 -7 -24 -21 -52z m-294
-371 c0 -2 -10 -12 -22 -23 l-23 -19 19 23 c18 21 26 27 26 19z m-90 -72 c0
-6 -87 -65 -97 -65 -4 0 15 16 42 34 54 38 55 38 55 31z m-1410 -71 c0 -2 -9
0 -20 6 -11 6 -20 13 -20 16 0 2 9 0 20 -6 11 -6 20 -13 20 -16z"/>
<path d="M2355 2625 c-44 -24 -84 -64 -108 -110 -31 -57 -32 -204 -1 -256 l21
-35 -44 -18 c-76 -31 -155 -148 -171 -250 -23 -148 41 -302 151 -358 47 -24
105 -20 146 9 54 39 111 204 94 272 -5 20 -11 6 -24 -61 -16 -81 -38 -126 -53
-111 -3 4 -4 23 -1 42 5 34 4 32 -19 -17 -46 -96 -115 -88 -169 20 -72 143
-27 314 99 369 99 44 219 33 307 -28 65 -45 82 -90 82 -214 0 -104 -1 -107
-42 -190 -34 -69 -59 -101 -135 -176 -51 -51 -104 -101 -118 -111 l-25 -20
-99 40 c-139 55 -257 82 -329 74 -143 -15 -243 -119 -218 -229 18 -78 77 -129
174 -149 51 -11 65 -10 134 10 43 13 133 50 200 83 119 59 122 60 151 45 l31
-16 -48 -47 c-26 -27 -35 -39 -21 -28 41 33 89 65 96 65 4 0 -3 -11 -16 -25
-28 -30 -16 -34 15 -5 l21 20 88 -35 c131 -53 206 -68 306 -61 137 9 214 46
250 120 42 87 18 179 -58 227 -130 82 -280 53 -469 -90 -61 -46 -88 -61 -103
-56 -11 3 -20 10 -20 15 0 4 29 31 64 59 130 104 208 208 246 330 26 81 27
226 3 300 -20 63 -80 134 -137 163 -22 11 -43 22 -45 24 -1 1 9 28 25 59 73
150 -12 350 -153 362 -32 3 -58 -1 -78 -12z m110 -121 c55 -59 56 -139 3 -199
-25 -29 -37 -35 -69 -35 -34 0 -42 5 -59 33 -24 39 -26 94 -5 145 35 81 86
104 130 56z m131 -386 c26 -18 54 -44 62 -58 12 -22 11 -21 -8 3 -12 15 -45
41 -74 57 -28 17 -46 30 -40 30 7 0 33 -15 60 -32z m350 -697 c53 -24 74 -55
74 -107 0 -35 -6 -47 -33 -71 -32 -28 -35 -28 -157 -30 -80 -2 -118 1 -105 7
11 5 31 9 45 10 14 2 3 6 -25 11 -27 5 -86 19 -129 32 l-80 24 60 40 c147 99
258 126 350 84z m-919 -35 c72 -19 193 -66 193 -75 0 -21 -236 -101 -297 -101
-67 0 -133 45 -133 92 0 26 43 70 81 84 46 17 93 17 156 0z m413 -92 c0 -2 -9
0 -20 6 -11 6 -20 13 -20 16 0 2 9 0 20 -6 11 -6 20 -13 20 -16z"/>
<path d="M2970 1279 c0 -5 5 -7 10 -4 6 3 10 8 10 11 0 2 -4 4 -10 4 -5 0 -10
-5 -10 -11z"/>
<path d="M2984 1258 l-19 -23 23 19 c21 18 27 26 19 26 -2 0 -12 -10 -23 -22z"/>
<path d="M2935 1230 c-16 -7 -17 -9 -3 -9 9 -1 20 4 23 9 7 11 7 11 -20 0z"/>
<path d="M2372 1945 c0 -16 2 -22 5 -12 2 9 2 23 0 30 -3 6 -5 -1 -5 -18z"/>
<path d="M2380 1859 c0 -17 4 -28 10 -24 6 3 10 17 10 31 0 13 -4 24 -10 24
-5 0 -10 -14 -10 -31z"/>
<path d="M3601 1590 c-1 -19 -6 -55 -12 -79 -5 -24 -8 -46 -5 -48 8 -8 28 106
23 134 -3 25 -4 24 -6 -7z"/>
<path d="M3571 1434 c0 -11 3 -14 6 -6 3 7 2 16 -1 19 -3 4 -6 -2 -5 -13z"/>
<path d="M2088 593 c7 -3 16 -2 19 1 4 3 -2 6 -13 5 -11 0 -14 -3 -6 -6z"/>
<path d="M2865 579 c-22 -10 -29 -16 -15 -13 28 7 80 33 65 33 -5 0 -28 -9
-50 -20z"/>
<path d="M2745 540 c-13 -5 -14 -9 -5 -9 8 0 24 4 35 9 13 5 14 9 5 9 -8 0
-24 -4 -35 -9z"/>
<path d="M2698 523 c7 -3 16 -2 19 1 4 3 -2 6 -13 5 -11 0 -14 -3 -6 -6z"/>
<path d="M2658 513 c7 -3 16 -2 19 1 4 3 -2 6 -13 5 -11 0 -14 -3 -6 -6z"/>
</g>
</svg>
